<svg xmlns="http://www.w3.org/2000/svg" fill="none" viewBox="0 0 304 59" height="59" width="304">
<path fill="#D3D3C7" d="M38.9621 28.7965C38.749 28.7528 38.5189 28.7266 38.2717 28.7266C37.3938 28.7266 34.3423 29.0845 32.595 29.3027C31.8194 29.3988 31.1545 29.9487 30.9074 30.7081L29.5351 34.8456L28.427 36.8183L23.9692 39.4806L18.463 39.2449L12.5733 35.0987L9.97359 28.264C10.2037 26.6841 11.5249 18.5313 14.6956 12.7441C16.3407 11.4522 17.2782 10.1953 17.4658 8.98198L24.0715 8.61537L26.961 9.75885C27.5235 10.4659 30.3619 14.1495 31.325 16.7856L31.3676 16.9078L31.4358 17.0125C32.0495 17.9203 32.7484 18.06 33.1064 18.06C33.2087 18.06 33.2939 18.0513 33.3707 18.0338L38.4762 17.6585C38.8087 17.6323 39.1411 17.5275 39.4224 17.3442C40.198 16.8467 40.556 15.8778 40.2918 14.9787L38.6893 9.42715C38.6041 9.12165 38.4507 8.84232 38.2376 8.60664C37.0102 7.23621 32.7484 2.6623 29.2197 1.40534C25.691 0.139662 21.3099 0.00872885 20.4405 0C20.27 0 20.091 0.0261865 19.9205 0.0698308L12.0618 2.19094C11.755 2.2695 11.4652 2.43535 11.2351 2.64484L7.36539 6.13638L6.76022 6.30223C6.35109 6.40697 5.9931 6.64265 5.72035 6.96562L3.69175 9.40097C3.5298 9.60173 3.40195 9.81995 3.31672 10.0644L0.580665 17.9727C0.512477 18.1647 0.478383 18.3742 0.469859 18.575L0.00106544 29.3377C-0.00745808 29.6257 0.0351595 29.905 0.128918 30.1669L2.38765 36.2858C2.49846 36.5739 2.66893 36.8445 2.89054 37.0627L4.55263 38.6862C6.0272 40.9732 9.77755 46.2978 12.6926 46.4375C14.9939 46.5422 17.6277 47.5635 18.1391 47.7643C18.3778 47.8603 18.625 47.9039 18.8807 47.9039H23.5345C23.705 47.9039 23.8755 47.8777 24.0459 47.8341L29.2879 46.4549C29.5692 46.3764 29.8334 46.2454 30.055 46.0621L30.7454 45.4947L37.5813 40.9907C37.9904 40.7201 38.2973 40.3098 38.4336 39.8297L40.4708 32.8728C40.5304 32.6808 40.556 32.4713 40.556 32.2705V30.8303C40.556 29.8527 39.8826 28.9885 38.9621 28.7877V28.7965Z"></path>
<path fill="#D3D3C7" d="M50.2555 1.04736C50.1958 1.04736 50.1361 1.04736 50.068 1.05609L47.3234 1.3616L44.8771 1.79804C43.9481 1.8155 43.2065 2.59237 43.2065 3.54381V17.5973C43.1724 18.3305 42.84 24.7636 43.2065 27.0768C43.0446 30.2104 42.6951 33.9115 42.661 34.3305C42.661 34.4177 42.6525 34.505 42.661 34.5923L43.2406 45.2241C43.2918 46.1493 44.0418 46.8738 44.9368 46.8738H49.2241C49.3946 46.8738 49.5736 46.8476 49.7355 46.7952L50.4686 46.5596C51.1675 46.3326 51.6448 45.678 51.6619 44.9273L51.9602 25.5929C51.9602 25.4707 51.9517 25.3397 51.9261 25.2175L51.2016 21.5165L51.7556 20.469C51.892 20.2159 51.9602 19.9279 51.9602 19.6398V2.79313C51.9602 1.83296 51.1931 1.04736 50.2555 1.04736Z"></path>
<path fill="#D3D3C7" d="M84.8963 44.6308L84.257 40.0132L83.0467 40.5282L82.7398 40.6242L82.3477 36.9407L82.7995 31.7732C82.808 31.6684 82.808 31.555 82.7995 31.4502L82.3563 24.3013C82.5267 23.8998 82.8251 23.2277 81.0607 18.1562C79.1514 12.6657 72.6054 12.238 70.645 12.238C70.3722 12.238 70.1762 12.238 70.0909 12.2468C70.0142 12.2468 69.946 12.2555 69.8693 12.273L63.8176 13.2506C63.579 13.2942 63.3403 13.3728 63.1272 13.495L61.0645 14.6908C61.0645 14.6908 61.0219 14.6996 60.9963 14.7083C58.1495 15.1273 56.8028 19.4219 56.172 22.9571C56.0697 23.5332 56.2061 24.1355 56.5556 24.6068C56.905 25.0782 57.425 25.3749 57.996 25.4273L59.9224 25.6194C59.9224 25.6194 59.9991 25.6194 60.0417 25.6194C60.1184 25.6194 60.3059 25.6194 60.5531 25.6194C62.8885 25.6194 63.5278 25.2353 63.8688 24.8163C64.0989 24.537 64.2012 24.1966 64.1671 23.8474L64.0818 22.25L66.9202 19.5615C67.4316 19.483 68.4118 19.3171 69.2982 19.0815C69.5625 19.0291 69.8182 19.0029 70.0739 19.0029C72.9548 19.0029 74.5658 22.3111 74.5743 22.3373L74.8726 22.9047L73.4662 25.2964L71.7956 26.0994C69.1619 26.3526 65.7439 26.6494 64.7808 26.6494C63.6983 26.6494 61.0304 28.1245 56.8454 31.0487C56.4107 31.3542 56.1038 31.8081 55.993 32.3406C55.4901 34.7061 54.6378 38.7737 54.5696 39.4458C54.4673 40.4235 55.277 41.2702 57.2886 42.2653L58.7973 45.6521C59.1126 46.3678 59.786 46.8392 60.5531 46.8828L67.389 47.2582C67.389 47.2582 67.4657 47.2582 67.4998 47.2582C67.6362 47.2582 67.7725 47.2407 67.9004 47.2145L73.3213 46.106C74.0032 45.9663 74.5658 45.4862 74.8215 44.8228L75.2817 43.7666L75.6056 44.2904C75.7079 44.4475 75.8273 44.5959 75.9722 44.7268L78.4269 46.9527C78.802 47.2931 79.2878 47.4851 79.7907 47.4851C79.893 47.4851 79.9953 47.4851 80.0975 47.4589L83.1404 46.9876C84.2485 46.813 85.0241 45.7481 84.8707 44.6133L84.8963 44.6308ZM72.307 38.2413L70.8921 38.9919L66.4002 40.3449L63.5193 39.5331L62.7522 37.2811L64.2012 34.3307L68.5056 33.1262C68.5652 33.1087 68.6164 33.0913 68.676 33.0738L73.9777 31.0749C73.9777 31.0749 73.9777 31.0749 73.9862 31.0749L74.992 31.2407L74.5402 33.6324L72.3156 38.2413H72.307Z"></path>
<path fill="#D3D3C7" d="M112.57 14.1322C112.366 14.1322 112.153 14.1671 111.957 14.2369L111.573 14.3678L109.638 14.2194L108.155 13.9052C108.019 13.879 107.882 13.8616 107.746 13.8616C106.834 13.8616 106.05 14.49 105.837 15.3978L104.533 20.8359L102.291 25.244C102.24 25.3487 102.197 25.4535 102.163 25.5582L99.2566 34.8806L98.8049 33.7459L97.6286 30.5948C97.6883 29.1458 96.691 26.7104 96.5035 26.2827L92.2673 14.9788C91.9775 14.202 91.236 13.687 90.4262 13.687H89.9574L86.8378 13.3727C86.7696 13.3727 86.71 13.364 86.6418 13.364C86.4884 13.364 86.3349 13.3815 86.1815 13.4164L84.545 13.8179C83.9995 13.9488 83.5307 14.3155 83.2665 14.8305C83.0023 15.3455 82.9596 15.939 83.1557 16.4802L88.4914 31.2669C88.534 31.3716 88.5766 31.4764 88.6278 31.5724L90.1876 34.3569L93.239 39.76L93.2134 40.0917C93.1793 40.5107 93.2646 40.921 93.4691 41.2876L95.0971 44.1681L95.5063 45.8877L91.5002 49.388L89.6421 49.3181H88.2016C87.3748 49.3181 86.6333 49.8506 86.352 50.6449L85.1928 53.9182C84.9712 54.5467 85.0649 55.245 85.4485 55.7862L86.4713 57.2352C86.8378 57.7589 87.4345 58.0732 88.0652 58.0732C88.1419 58.0732 88.2101 58.0732 88.2868 58.0644L95.2335 57.2614C95.6938 57.209 96.12 56.9908 96.4353 56.6504L100.62 52.1637C100.799 51.9717 100.944 51.7447 101.038 51.4916L103.68 44.4212L106.672 39.2887C106.732 39.1839 106.783 39.0792 106.825 38.9657L113.934 19.6924C113.977 19.5702 114.011 19.4393 114.036 19.3084L114.497 16.4977C114.59 15.9128 114.437 15.3193 114.062 14.8654C113.687 14.4115 113.141 14.1496 112.562 14.1496L112.57 14.1322Z"></path>
<path fill="#D3D3C7" d="M161.549 28.5263C161.276 28.5263 161.003 28.5874 160.764 28.6922L156.29 28.151C156.213 28.1422 156.136 28.1335 156.059 28.1335C155.48 28.1335 154.934 28.3866 154.559 28.8405C154.184 29.2857 154.014 29.8793 154.091 30.4641L154.414 32.786C154.355 33.2923 154.15 35.0642 153.894 36.6791C150.442 38.9398 144.945 39.1842 142.737 39.1842C142.115 39.1842 141.655 39.1668 141.433 39.158L138.203 37.8225C136.097 35.361 133.702 32.5503 133.165 31.8956C133.003 31.433 133.029 29.565 133.327 27.1646C133.532 26.6147 134.546 23.6207 134.785 18.7936C134.989 14.6649 136.873 11.4265 137.419 10.5536L143.641 8.37141L148.738 10.6147L153.826 18.5405C154.193 19.1166 154.815 19.457 155.488 19.457C155.812 19.457 156.136 19.3785 156.417 19.2214L157.474 18.6453L159.639 18.0779C160.074 17.9644 160.466 17.7025 160.73 17.3359L161.455 16.3583C161.77 15.9306 161.915 15.3981 161.838 14.8569L161.233 10.1783C161.165 9.64582 160.901 9.17446 160.492 8.84276L150.69 0.9257C150.34 0.646377 149.897 0.489258 149.454 0.489258H144.519C144.442 0.489258 144.382 0.489258 144.314 0.497987C143.172 0.62019 139.183 1.0479 135.884 1.33596C131.895 1.68511 128.682 6.84386 128.085 7.87386C128.043 7.94369 128.017 8.00479 127.983 8.07462L123.133 19.0468C123.014 19.3174 122.954 19.5967 122.954 19.8848V31.7996C122.954 32.5067 123.321 33.1701 123.9 33.5367L124.846 34.1215L125.605 35.9982C125.656 36.1291 125.724 36.2513 125.792 36.3648L129.884 42.5797C130.097 42.9027 130.395 43.1559 130.745 43.313L137.359 46.2459C137.87 46.691 139.899 48.1226 144.51 48.1226C145.627 48.1226 146.837 48.0353 148.098 47.8694C155.565 46.8831 158.216 44.0986 158.625 43.6185L159.887 42.3441C160.083 42.152 160.227 41.9164 160.33 41.6632L163.364 33.9993C163.458 33.7549 163.509 33.493 163.509 33.2312V30.5427C163.509 29.4167 162.614 28.5001 161.515 28.5001L161.549 28.5263Z"></path>
<path fill="#D3D3C7" d="M194.089 40.5457H194.063L193.228 38.7301L193.654 33.3531C193.654 33.2658 193.654 33.1872 193.654 33.1L193.177 23.4808L193.134 20.7486C193.134 20.3297 192.998 19.9456 192.751 19.6139C191.412 17.8419 188.011 13.6434 185.25 12.8141C184.525 12.5959 183.639 12.4824 182.616 12.4824C179.744 12.4824 176.624 13.3291 176.53 13.3553L171.067 14.5861C170.504 14.717 170.018 15.1098 169.78 15.651L166.626 22.669C166.345 23.2887 166.413 24.022 166.805 24.5806L167.24 25.2004C167.589 25.6979 168.152 25.9859 168.748 25.9859H171.663C171.732 25.9859 171.8 25.9859 171.868 25.9772L173.342 25.8114C174.033 25.7328 174.621 25.2702 174.868 24.6068L175.448 23.0618L176.428 20.2162L180.877 19.7972L185.761 21.22L185.42 23.1665L179.283 25.9772C178.329 26.0471 175.218 26.3438 172.823 27.4786C170.001 27.6706 167.01 31.1447 165.85 32.6373C165.586 32.969 165.45 33.3967 165.45 33.8245V37.3422C165.45 37.5168 165.475 37.7001 165.526 37.8659L166.813 42.4398C166.89 42.7104 167.027 42.9723 167.214 43.1818L169.626 45.9401C169.916 46.2718 170.317 46.49 170.751 46.5511L178.712 47.7033C178.798 47.7121 178.883 47.7208 178.977 47.7208C179.241 47.7208 179.514 47.6597 179.752 47.5462L185.241 44.9537C185.48 44.8403 185.685 44.6831 185.855 44.4824L186.486 43.7579L187.057 44.9014C187.219 45.2331 187.474 45.5037 187.79 45.687L190.049 47.005C190.33 47.1709 190.645 47.2582 190.969 47.2582C191.02 47.2582 191.071 47.2582 191.123 47.2582L193.62 47.0487C194.575 46.9701 195.325 46.1321 195.325 45.1545V42.3438C195.325 41.5408 194.83 40.825 194.097 40.5544L194.089 40.5457ZM174.007 39.0007V35.771L176.206 33.9816L180.724 32.2009L186.162 30.3766L185.872 32.6984L183.17 38.5817L178.721 40.4147C178.721 40.4147 178.005 40.7028 177.212 40.7028C176.692 40.7028 176.266 40.5806 175.951 40.3362C175.09 39.6815 174.442 39.2538 174.024 39.0007H174.007Z"></path>
<path fill="#D3D3C7" d="M228.73 26.1425L227.443 20.975C227.383 20.7306 227.264 20.4949 227.102 20.3029L222.866 15.2053C222.661 14.9609 222.397 14.7863 222.099 14.6903L217.709 13.3111L215.868 12.8223C215.783 12.7961 215.698 12.7874 215.604 12.7787L212.766 12.5081C212.714 12.5081 212.663 12.5081 212.621 12.5081C212.433 12.5081 212.254 12.543 212.075 12.6041L209.032 13.7039C208.853 13.7737 208.683 13.8698 208.538 13.992L206.654 15.5981L206.56 15.1791C206.501 14.9085 206.373 14.6641 206.194 14.4546L205.683 13.861C205.376 13.5031 204.924 13.3024 204.464 13.3024H204.378L199.904 13.6515C199.162 13.7126 198.548 14.2713 198.42 15.022L198.31 15.6417C198.284 15.7726 198.276 15.9036 198.284 16.0345L198.94 27.6875L198.028 37.813C198.02 37.9526 198.028 38.0923 198.045 38.232L198.31 39.9428H197.815V42.3869L197.764 49.885C197.764 50.077 197.79 50.2603 197.849 50.4436L199.418 55.1223C199.239 55.5849 199.273 56.1086 199.511 56.5451C199.784 57.0426 200.27 57.3569 200.824 57.4005L204.003 57.6362H204.123C204.387 57.6362 204.651 57.5751 204.881 57.4529L206.416 56.6324C206.995 56.3181 207.336 55.6896 207.285 55.0263L206.552 45.1714L206.586 44.9183C206.586 44.9183 206.663 44.9532 206.705 44.9794C207.941 45.538 210.942 46.7251 211.53 46.9608C211.657 47.0132 211.785 47.0394 211.913 47.0568L217.044 47.7202C217.113 47.7289 217.181 47.7377 217.249 47.7377C217.59 47.7377 217.922 47.6329 218.195 47.4234L223.565 43.5042L225.108 42.7186C225.244 42.6488 225.38 42.5527 225.491 42.448C226.02 41.9417 228.653 39.2445 228.815 35.526C228.969 32.0519 228.798 27.0678 228.773 26.5091C228.773 26.3869 228.756 26.2734 228.722 26.16L228.73 26.1425ZM215.016 40.3007L211.078 39.7508C210.728 39.5849 209.484 38.9303 208.248 37.6209C207.592 36.9226 206.799 32.8026 206.398 28.0105L207.992 24.0563L208.785 22.1796L212.638 20.879C212.987 20.8179 215.007 20.4862 217.027 20.4862C217.147 20.4862 217.275 20.4862 217.394 20.4862C218.28 20.5037 219.738 23.0874 220.65 26.2473L220.505 35.1158L218.775 38.6771L215.024 40.2832L215.016 40.3007Z"></path>
<path fill="#D3D3C7" d="M238.516 0.759157H238.447L234.671 0.951192L233.776 0.820259C233.683 0.81153 233.597 0.802801 233.512 0.802801C232.745 0.802801 232.055 1.26543 231.748 1.98992C231.646 2.24306 231.586 2.50493 231.586 2.77552V6.94791C231.586 7.07884 231.603 7.2185 231.629 7.34071L231.816 8.26596C231.995 9.18249 232.796 9.84588 233.708 9.84588H236.905C237.186 9.84588 237.476 9.77605 237.731 9.65385L238.805 9.13012C239.274 8.90317 239.641 8.48418 239.803 7.97791L240.357 6.31943C240.425 6.11867 240.459 5.90045 240.459 5.68223V2.71442C240.459 1.62331 239.598 0.741699 238.533 0.741699L238.516 0.759157Z"></path>
<path fill="#D3D3C7" d="M240.372 31.3545C240.244 30.3245 240.04 29.5128 239.963 29.2334L239.673 26.03L239.955 21.4473L240.381 15.8783C240.398 15.6077 240.372 15.3371 240.287 15.0752L240.117 14.569C239.844 13.7572 239.102 13.2073 238.267 13.2073H234.235C233.835 13.2073 233.451 13.3295 233.127 13.5564L232.684 13.8707C232.139 14.2547 231.815 14.9007 231.84 15.5815L232.173 26.8854L231.891 27.9154C231.84 28.09 231.823 28.2733 231.823 28.4478V28.9454C231.823 29.3556 231.943 29.7484 232.164 30.0452L231.619 40.8952C231.619 41.0086 231.619 41.1309 231.627 41.2443L232.096 45.1374C232.207 46.0714 232.923 46.7871 233.835 46.8832C234.201 46.9268 234.534 46.9443 234.832 46.9443C235.292 46.9443 235.659 46.8919 235.991 46.7784C236.673 46.7522 237.611 46.6388 238.284 46.534C239.239 46.3943 239.963 45.5389 239.963 44.5526V36.6442C240.134 35.4396 240.526 32.498 240.372 31.3371V31.3545Z"></path>
<path fill="#D3D3C7" d="M258.792 13.3202C258.732 13.3202 258.681 13.3202 258.621 13.3202L255.425 13.5646C255.314 13.5646 255.237 13.5035 255.203 13.4599C255.161 13.4162 255.118 13.329 255.135 13.2242L255.314 11.9673C255.331 11.8101 255.715 8.048 255.229 5.69121C255.007 4.60884 254.053 3.82324 252.962 3.82324H250.089C249.868 3.82324 249.646 3.85816 249.424 3.91926L248.657 4.15494C247.779 4.42553 247.131 5.2024 247.012 6.13639L246.654 9.04309C246.646 9.13911 246.637 9.24385 246.637 9.33987V13.0758C246.637 13.2242 246.526 13.3551 246.381 13.3726L244.566 13.5908C243.611 13.7043 242.81 14.4288 242.588 15.389L242.128 17.318C241.992 17.8767 242.068 18.4702 242.324 18.9765L242.58 19.4915C242.921 20.1549 243.552 20.6263 244.276 20.7397L246.305 21.0627C246.424 21.0802 246.509 21.1675 246.543 21.2809L247.106 23.5155C247.106 23.5155 247.114 23.5766 247.114 23.6028L246.654 36.7223C246.646 36.9754 246.671 37.2198 246.739 37.4642L247.259 39.3409C247.285 39.4457 247.319 39.5417 247.362 39.6377L249.254 44.0981C249.416 44.4909 249.68 44.8226 250.021 45.0758L252.356 46.8128C252.757 47.1096 253.226 47.2667 253.72 47.2667C253.797 47.2667 253.865 47.2667 253.942 47.258L256.686 46.9874C256.737 46.9874 256.789 46.9787 256.84 46.9699L258.775 46.6382C259.9 46.4462 260.718 45.4598 260.718 44.2902V41.5493C260.718 40.24 259.678 39.1751 258.4 39.1751L257.027 39.2187L255.987 39.2624C255.868 39.2624 255.757 39.1838 255.715 39.0616L254.922 36.7921C254.922 36.7921 254.905 36.7135 254.905 36.6786L255.152 31.5024V27.0332L255.561 22.9481C255.578 22.7299 255.578 22.5204 255.536 22.3022L255.391 21.4468C255.374 21.3595 255.391 21.2722 255.45 21.2024C255.476 21.1675 255.553 21.0889 255.672 21.0889C255.698 21.0889 255.723 21.0889 255.757 21.0976C255.953 21.15 256.158 21.1762 256.362 21.1762C256.49 21.1762 256.618 21.1675 256.737 21.1413L258.894 20.7747C259.866 20.6088 260.633 19.8319 260.803 18.8369L261.067 17.2744C261.093 17.1435 261.101 17.0038 261.101 16.8641V15.6945C261.101 14.3851 260.062 13.3202 258.783 13.3202H258.792Z"></path>
<path fill="#D3D3C7" d="M291.984 40.5713L291.183 40.0563L290.782 35.8315L291.277 31.825C291.328 31.406 291.243 30.9608 291.038 30.5942L290.782 30.1316V28.2025L290.637 22.1534C290.637 21.9789 290.603 21.7955 290.552 21.6297L289.342 17.5359C289.274 17.2915 289.154 17.0645 289.001 16.8725L288.004 15.6068C287.884 15.4584 287.757 15.3275 287.603 15.2227L284.935 13.3198C284.611 13.0842 284.228 12.962 283.836 12.962H278.594L276.011 12.5342C275.909 12.5168 275.807 12.5081 275.704 12.5081C275.611 12.5081 275.517 12.5081 275.423 12.5255L271.792 13.0667C271.545 13.1016 271.306 13.1889 271.093 13.3198L266.32 16.2004C265.817 16.5059 265.476 17.0121 265.391 17.6057L264.82 21.5075L264.394 22.651C264.351 22.7819 264.129 23.4889 264.487 24.2134C264.658 24.5626 265.024 25.0252 265.791 25.2609C266.141 25.3656 266.814 25.4879 268.979 25.4879C269.806 25.4879 270.633 25.4704 271.229 25.4529C272.278 25.418 273.096 24.5539 273.096 23.4802V22.2407L275.466 19.7443C275.602 19.7443 275.772 19.7355 275.951 19.7355C277.221 19.7355 277.605 19.9276 277.622 19.9276C277.98 20.2855 278.449 20.4775 278.952 20.4775H281.833L282.532 22.6772L282.336 23.9603L272.031 26.0727C271.818 26.1163 271.622 26.1949 271.434 26.3084L265.544 29.861C265.169 30.088 264.871 30.4458 264.717 30.8648L263.371 34.5222C263.285 34.7492 263.243 34.9848 263.243 35.2205V39.5937L263.047 42.5789C262.996 43.3122 263.354 44.0105 263.967 44.3945L266.84 46.1752C267.036 46.2974 267.24 46.376 267.462 46.4196L274.724 47.9035C274.852 47.9297 274.98 47.9384 275.099 47.9384C275.218 47.9384 275.346 47.9297 275.474 47.9035C277.52 47.4933 282.336 46.2712 283.853 43.6962L284.091 44.2112C284.287 44.6389 284.628 44.9794 285.055 45.1714L289.171 47.0306C289.419 47.1441 289.683 47.1965 289.947 47.1965C290.092 47.1965 290.245 47.179 290.39 47.1441L291.388 46.8997C292.265 46.6902 292.871 45.8959 292.871 44.9794V42.2036C292.871 41.5227 292.53 40.8943 291.967 40.5277L291.984 40.5713ZM281.892 36.2331C281.662 36.4076 281.475 36.6259 281.338 36.8877L280.929 37.6559C280.895 37.7257 280.861 37.8043 280.827 37.8828L280.622 38.424L276.881 40.3269L273.207 40.4404L271.604 38.7993L271.187 36.4338L271.809 35.8403L273.812 34.0945L279.625 31.5369L283.162 30.7688V35.2729L281.892 36.2243V36.2331Z"></path>
<path fill="#D3D3C7" d="M303.917 19.788C303.994 19.4912 304.019 19.1857 303.985 18.8802L302.962 8.60632V4.19826C302.962 3.80546 302.869 3.41266 302.698 3.06351L302.545 2.74927C302.127 1.88511 301.275 1.35265 300.337 1.35265C300.252 1.35265 300.184 1.3352 300.115 1.29155C299.561 0.942399 298.82 0.767822 297.899 0.767822C297.797 0.767822 297.695 0.767822 297.584 0.767822C295.896 0.837653 295.087 2.04223 294.89 3.14207C294.848 3.40393 294.839 3.67453 294.882 3.94512L295.18 6.04004C295.18 6.04004 295.18 6.09242 295.18 6.1186L294.848 14.9347C294.848 15.0657 294.848 15.1966 294.865 15.3275L295.496 20.8005C295.496 20.8005 295.496 20.8616 295.496 20.8965L294.848 28.3859C294.848 28.4557 294.839 28.5343 294.839 28.6041V33.1256L295.172 40.196C295.172 40.2222 295.172 40.2397 295.172 40.2658L294.856 43.6003C294.839 43.801 294.839 44.0105 294.873 44.2113L294.976 44.9183C295.155 46.1491 296.203 47.0831 297.422 47.0831C297.541 47.0831 297.661 47.0831 297.78 47.0569L298.377 46.9696C298.53 46.9434 298.683 46.9085 298.837 46.8561L301.437 45.9309C302.332 45.6079 302.962 44.8136 303.073 43.8534L303.414 41.034C303.431 40.903 303.44 40.7808 303.431 40.6499L302.971 23.5239C302.971 23.5239 302.971 23.4366 302.988 23.393L303.925 19.788H303.917Z"></path>
</svg>
